<svg xmlns="http://www.w3.org/2000/svg" width="454" height="417" viewBox="0 0 454 417">
  <g id="gift" transform="translate(60 80.343)">
    <g id="Group_15" data-name="Group 15" transform="translate(0 2.657)">
      <g id="Group_14" data-name="Group 14">
        <path id="Path_13" data-name="Path 13" d="M316.039,59.122h-46.31C277.29,52.9,281.919,44.605,281.919,35.5c0,0-.009-1.39-.027-1.787-.5-11.237-8.578-21.259-21.608-26.81a54.932,54.932,0,0,0-42.362.005L196.86,15.925c-13.19,5.647-23.513,14.159-29.935,24.168-6.422-10.009-16.745-18.521-29.934-24.167L115.93,6.908A54.934,54.934,0,0,0,73.568,6.9c-13.03,5.55-21.108,15.572-21.608,26.81-.018.4-.027,1.787-.027,1.787,0,9.106,4.629,17.405,12.189,23.623H17.811C7.99,59.122,0,65.184,0,72.634V104.7c0,7.45,7.99,13.512,17.811,13.512h8.155v121.56c0,7.45,7.99,13.512,17.811,13.512h246.3c9.821,0,17.811-6.061,17.811-13.512V118.215h8.155c9.821,0,17.811-6.061,17.811-13.512V72.634C333.851,65.184,325.86,59.122,316.039,59.122ZM204.153,25.727l21.061-9.017a36.052,36.052,0,0,1,27.8.007c8.47,3.607,13.72,10.1,14.043,17.375.012.27.018,1.406.018,1.406,0,13.026-13.97,23.623-31.141,23.623H174.768C176.992,45.2,187.827,32.717,204.153,25.727ZM66.788,34.092c.324-7.272,5.574-13.767,14.043-17.375a36.054,36.054,0,0,1,27.8-.006L129.7,25.727c16.326,6.989,27.161,19.472,29.384,33.394H97.91c-17.17,0-31.14-10.6-31.14-23.623C66.77,35.5,66.776,34.363,66.788,34.092Zm66.753,101.244H103c-4.1,0-7.419,2.52-7.419,5.628s3.322,5.628,7.419,5.628h30.543v95.438H43.777c-1.64,0-2.973-1.012-2.973-2.255V118.215h92.737v17.121Zm0-28.376H17.811c-1.64,0-2.973-1.012-2.973-2.256V72.635c0-1.245,1.334-2.256,2.973-2.256H133.541Zm51.93,135.07H148.379V70.378h37.092Zm107.576-2.255c0,1.244-1.334,2.256-2.973,2.256H200.309V146.592h28.27c4.1,0,7.419-2.52,7.419-5.628s-3.322-5.628-7.419-5.628h-28.27V118.215h92.738v121.56ZM319.013,104.7c0,1.244-1.334,2.256-2.973,2.256H200.309V70.378H316.04c1.639,0,2.973,1.012,2.973,2.256V104.7Z" transform="translate(0 -2.657)" fill="#ff42b3"/>
        <path id="Path_14" data-name="Path 14" d="M404.6,293.643h1.138a11.378,11.378,0,0,0,0-22.756H404.6a11.378,11.378,0,1,0,0,22.756Z" transform="translate(-143.518 -144.582)" fill="#ff42b3"/>
        <path id="Path_15" data-name="Path 15" d="M102.778,293.643h1.138a11.378,11.378,0,1,0,0-22.756h-1.138a11.378,11.378,0,1,0,0,22.756Z" transform="translate(-33.359 -144.582)" fill="#ff42b3"/>
      </g>
    </g>
    <g id="Rectangle_12" data-name="Rectangle 12" transform="translate(-60 -80.343)" fill="none" stroke="#ff42b3" stroke-width="8">
      <rect width="454" height="417" rx="74" stroke="none"/>
      <rect x="4" y="4" width="446" height="409" rx="70" fill="none"/>
    </g>
  </g>
</svg>
