<svg xmlns="http://www.w3.org/2000/svg" xmlns:xlink="http://www.w3.org/1999/xlink" width="274.61" height="333.617" viewBox="0 0 274.61 333.617">
  <defs>
    <filter id="Path_5" x="0" y="0" width="274.61" height="333.617" filterUnits="userSpaceOnUse">
      <feOffset dx="4" dy="6" input="SourceAlpha"/>
      <feGaussianBlur stdDeviation="4" result="blur"/>
      <feFlood flood-opacity="0.161"/>
      <feComposite operator="in" in2="blur"/>
      <feComposite in="SourceGraphic"/>
    </filter>
  </defs>
  <g transform="matrix(1, 0, 0, 1, 0, 0)" filter="url(#Path_5)">
    <path id="Path_5-2" data-name="Path 5" d="M126.453,286.246,137.441,263.3l31.617,3.323,9.369,54.425h0l-50.218,30.092L63.221,294.414,115.6,204.021l110.6,23.319,13.8,90.248,10.657,69.681.583,3.308h0l.058-.213.04-.146s-32.982,22.407-56.583,39.187c-29.21,20.767-70.428,47.635-70.428,47.635s-61.857-58.63-81.469-81.927" transform="matrix(0.99, -0.1, 0.1, 0.99, -49.46, -162.39)" fill="none" stroke="#5f5f79" stroke-linejoin="round" stroke-width="15"/>
  </g>
</svg>
