<svg xmlns="http://www.w3.org/2000/svg" width="454" height="417" viewBox="0 0 454 417">
  <g id="truck2" transform="translate(-297 -218)">
    <g id="truck" transform="translate(357 206.938)">
      <g id="Group_3" data-name="Group 3" transform="translate(0 94.062)">
        <g id="Group_2" data-name="Group 2">
          <path id="Path_7" data-name="Path 7" d="M310.483,200.313l-8.646-41.041c2.364-.6,4.137-3.085,4.137-6.066v-6.617c0-14.367-9.849-26.056-21.955-26.056H244.641V106.883c0-7.07-4.846-12.821-10.8-12.821H33.106c-5.957,0-10.8,5.751-10.8,12.821V219.378c0,3.426,2.34,6.2,5.228,6.2s5.228-2.777,5.228-6.2V106.883a.385.385,0,0,1,.348-.413h200.73a.385.385,0,0,1,.348.413v112.5c0,3.426,2.34,6.2,5.228,6.2s5.228-2.777,5.228-6.2v-7.033H306.3l.014,0h.014c7.588.006,14.031,5.917,16.244,14.062H306.322c-2.887,0-5.228,2.777-5.228,6.2v13.234c0,10.719,7.347,19.438,16.379,19.438H323.4v27.3H309.73c-4.49-15.387-16.815-26.47-31.287-26.47s-26.8,11.083-31.287,26.47h-2.517V245.847c0-3.426-2.34-6.2-5.228-6.2s-5.228,2.777-5.228,6.2v46.734H125.728c-4.49-15.387-16.815-26.47-31.287-26.47s-26.8,11.083-31.287,26.47H33.106a.385.385,0,0,1-.348-.413V278.519H55.41c2.887,0,5.228-2.777,5.228-6.2s-2.34-6.2-5.228-6.2H5.228c-2.887,0-5.228,2.777-5.228,6.2s2.34,6.2,5.228,6.2H22.3v13.648c0,7.07,4.846,12.821,10.8,12.821H61.344c0,.138-.009.275-.009.413,0,21.665,14.852,39.29,33.106,39.29s33.106-17.625,33.106-39.29c0-.139-.008-.275-.009-.413H245.346c0,.138-.009.275-.009.413,0,21.665,14.852,39.29,33.106,39.29s33.106-17.625,33.106-39.29c0-.139-.008-.275-.009-.413h17.086c2.887,0,5.228-2.777,5.228-6.2V232.612C333.854,216.274,323.7,202.7,310.483,200.313ZM244.641,132.94H284.02c6.341,0,11.5,6.123,11.5,13.648V147h-50.88Zm0,67V159.408H291.09l8.538,40.531H244.641ZM94.441,332.286c-12.49,0-22.652-12.059-22.652-26.883S81.951,278.52,94.441,278.52s22.652,12.059,22.652,26.883S106.931,332.286,94.441,332.286Zm184,0c-12.49,0-22.652-12.059-22.652-26.883s10.162-26.883,22.652-26.883S301.1,290.579,301.1,305.4,290.934,332.286,278.444,332.286ZM323.4,252.878h-5.925c-3.267,0-5.925-3.154-5.925-7.031v-7.031H323.4v14.062Z" transform="translate(0 -94.062)" fill="#ff42b3"/>
        </g>
      </g>
      <g id="Group_5" data-name="Group 5" transform="translate(83.638 292.582)">
        <g id="Group_4" data-name="Group 4">
          <path id="Path_8" data-name="Path 8" d="M139.07,350.6c-5.957,0-10.8,5.751-10.8,12.821s4.846,12.821,10.8,12.821,10.8-5.751,10.8-12.821S145.028,350.6,139.07,350.6Z" transform="translate(-128.267 -350.597)" fill="#ff42b3"/>
        </g>
      </g>
      <g id="Group_7" data-name="Group 7" transform="translate(267.641 292.582)">
        <g id="Group_6" data-name="Group 6">
          <path id="Path_9" data-name="Path 9" d="M421.258,350.6c-5.957,0-10.8,5.751-10.8,12.821s4.846,12.821,10.8,12.821,10.8-5.751,10.8-12.821S427.216,350.6,421.258,350.6Z" transform="translate(-410.455 -350.597)" fill="#ff42b3"/>
        </g>
      </g>
      <g id="Group_9" data-name="Group 9" transform="translate(133.82 266.113)">
        <g id="Group_8" data-name="Group 8">
          <path id="Path_10" data-name="Path 10" d="M288.516,316.393H210.455c-2.887,0-5.228,2.777-5.228,6.2s2.34,6.2,5.228,6.2h78.062c2.887,0,5.228-2.777,5.228-6.2S291.4,316.393,288.516,316.393Z" transform="translate(-205.227 -316.393)" fill="#ff42b3"/>
        </g>
      </g>
      <g id="Group_11" data-name="Group 11" transform="translate(11.152 239.644)">
        <g id="Group_10" data-name="Group 10">
          <path id="Path_11" data-name="Path 11" d="M89.24,282.188H22.33c-2.887,0-5.228,2.777-5.228,6.2s2.34,6.2,5.228,6.2H89.24c2.887,0,5.228-2.777,5.228-6.2S92.127,282.188,89.24,282.188Z" transform="translate(-17.102 -282.188)" fill="#ff42b3"/>
        </g>
      </g>
      <g id="Group_13" data-name="Group 13" transform="translate(94.79 153.618)">
        <g id="Group_12" data-name="Group 12">
          <path id="Path_12" data-name="Path 12" d="M232.355,172.839a4.668,4.668,0,0,0-7.392,0l-46.487,55.169-24.183-28.7a4.668,4.668,0,0,0-7.392,0,7.049,7.049,0,0,0,0,8.773l27.879,33.087a4.667,4.667,0,0,0,7.392,0l50.182-59.556A7.051,7.051,0,0,0,232.355,172.839Z" transform="translate(-145.37 -171.023)" fill="#ff42b3"/>
        </g>
      </g>
    </g>
    <g id="Rectangle_11" data-name="Rectangle 11" transform="translate(297 218)" fill="none" stroke="#ff42b3" stroke-width="8">
      <rect width="454" height="417" rx="74" stroke="none"/>
      <rect x="4" y="4" width="446" height="409" rx="70" fill="none"/>
    </g>
  </g>
</svg>
