<svg xmlns="http://www.w3.org/2000/svg" width="454" height="417" viewBox="0 0 454 417">
  <g id="wallet" transform="translate(59.039 66)">
    <g id="Group_17" data-name="Group 17" transform="translate(21.961 0)">
      <g id="Group_16" data-name="Group 16">
        <path id="Path_16" data-name="Path 16" d="M303.523,49.051,200.582,1.97C190.817-2.5,177.39.939,172.1,9.187l-60.219,94.505H38.643c-9.358,0-16.682,6.186-16.682,14.09V270.708c0,7.9,7.324,14.09,16.682,14.09H272.6c9.358,0,16.682-6.186,16.682-14.09v-35.74H296.2c3.662,0,6.51-2.406,6.51-5.5V188.575c0-3.093-2.848-5.5-6.51-5.5h-6.917V142.869c0-6.529-5.7-12.372-13.02-13.746l35.806-56.016C317.357,64.515,313.7,53.862,303.523,49.051ZM230.285,28.088,166,128.779h-18.31L216.451,21.9ZM183.9,14.342c2.034-3.093,6.917-4.468,10.579-2.749L204.651,16.4,133.04,128.779H110.661ZM34.574,117.438c0-1.031,1.628-2.749,3.662-2.749h66.322l-8.951,13.746H38.236a13.243,13.243,0,0,0-3.662.344V117.438Zm241.281,153.27a3.4,3.4,0,0,1-3.662,3.093H38.236a3.4,3.4,0,0,1-3.662-3.093V142.869a3.4,3.4,0,0,1,3.662-3.093h233.55a3.4,3.4,0,0,1,3.662,3.093v40.208h-24.82c-10.986,0-19.53,7.56-19.53,16.5v18.9c0,9.279,8.951,16.5,19.53,16.5h25.227v35.74Zm13.02-76.635h.407v29.9H250.629c-3.662,0-6.51-2.406-6.51-5.5v-18.9c0-3.093,2.848-5.5,6.51-5.5ZM300.268,67.608l-39.061,61.171H180.645l61.032-95.192,55.336,25.43C301.082,60.391,302.3,64.515,300.268,67.608Z" transform="translate(-21.961 0)" fill="#ff42b3"/>
      </g>
    </g>
    <g id="Group_19" data-name="Group 19" transform="translate(243.658 57.916)">
      <g id="Group_18" data-name="Group 18">
        <path id="Path_17" data-name="Path 17" d="M271.161,72.693l-3.2-1.6c-8-4.4-18.8-1.2-23.2,6.8l-4,7.6a16.849,16.849,0,0,0-1.2,13.2,16.109,16.109,0,0,0,8.4,10l3.2,1.6a18.208,18.208,0,0,0,8,2,17.991,17.991,0,0,0,15.2-8.8l4-7.6C282.361,87.493,279.161,77.093,271.161,72.693Zm-4.4,17.2-4,7.6a4.515,4.515,0,0,1-6,1.6l-3.2-2a5.88,5.88,0,0,1-2-2.4,3.02,3.02,0,0,1,.4-3.2l4-7.6a5.3,5.3,0,0,1,4-2.4,3.606,3.606,0,0,1,2,.4l3.2,1.6A6.222,6.222,0,0,1,266.761,89.893Z" transform="translate(-238.71 -69.108)" fill="#ff42b3"/>
      </g>
    </g>
    <g id="Rectangle_13" data-name="Rectangle 13" transform="translate(-59.039 -66)" fill="none" stroke="#ff42b3" stroke-width="8">
      <rect width="454" height="417" rx="74" stroke="none"/>
      <rect x="4" y="4" width="446" height="409" rx="70" fill="none"/>
    </g>
  </g>
</svg>
